G04*
G04 #@! TF.GenerationSoftware,Altium Limited,Altium Designer,22.4.2 (48)*
G04*
G04 Layer_Physical_Order=1*
G04 Layer_Color=255*
%FSLAX25Y25*%
%MOIN*%
G70*
G04*
G04 #@! TF.SameCoordinates,6C7EA4D3-1DBA-4452-8A60-7FA1E15C8F26*
G04*
G04*
G04 #@! TF.FilePolarity,Positive*
G04*
G01*
G75*
%ADD15C,0.00500*%
%ADD16C,0.00800*%
%ADD17C,0.12992*%
%ADD18C,0.08661*%
%ADD19C,0.01968*%
D15*
X382043Y247667D02*
X380957D01*
X381512Y249234D02*
X381488D01*
X135163Y249021D02*
X135310Y249167D01*
X136824Y244853D02*
X136970Y245000D01*
X135310Y249167D02*
X381488Y249234D01*
X135502Y247238D02*
X380957Y247667D01*
X429333Y249167D02*
X431167Y247333D01*
X382043Y247667D02*
X395970Y247384D01*
X126427Y234456D02*
X136824Y244853D01*
X395970Y247384D02*
X404108Y239246D01*
X136970Y245000D02*
X381500Y245500D01*
X120346Y232083D02*
X135502Y247238D01*
X124131Y237988D02*
X135163Y249021D01*
X381512Y249234D02*
X429333Y249167D01*
X428745Y173742D02*
X431167Y176165D01*
Y247333D01*
X428805Y242060D02*
Y246126D01*
X409514Y193881D02*
Y233938D01*
X404108Y239246D02*
X404205D01*
X409514Y233938D01*
X110504Y143500D02*
X116085Y137919D01*
X210645D02*
X212460Y139734D01*
X319043D02*
X321315Y137463D01*
X427898D01*
X427823Y135266D02*
X434500Y141943D01*
X212460Y139734D02*
X319043D01*
X116085Y137919D02*
X210645D01*
X427898Y137463D02*
X432667Y142232D01*
X104923Y141188D02*
X110846Y135266D01*
X427823D01*
X433500Y176376D02*
Y246000D01*
X430245Y173121D02*
X433500Y176376D01*
X425587Y238842D02*
X428805Y242060D01*
X425587Y237531D02*
Y238842D01*
X433500Y172473D02*
Y172500D01*
X434500Y141943D02*
Y171473D01*
X433500Y172473D02*
X434500Y171473D01*
X430245Y172021D02*
Y173121D01*
X428745Y171400D02*
Y173742D01*
X425587Y143043D02*
X431167Y148624D01*
X428745Y171400D02*
X431167Y168977D01*
Y148624D02*
Y168977D01*
X430245Y172021D02*
X432667Y169598D01*
Y142232D02*
Y169598D01*
X104923Y141188D02*
Y185163D01*
X409664Y155029D02*
Y186544D01*
X408766Y187442D02*
X409664Y186544D01*
X408766Y193133D02*
X409514Y193881D01*
X408766Y187442D02*
Y193133D01*
X409664Y155029D02*
X415744Y148949D01*
X104923Y185163D02*
X110504Y190744D01*
Y237988D02*
X124131D01*
X126427Y226352D02*
Y234456D01*
X120346Y220272D02*
X126427Y226352D01*
D16*
X295000Y193000D02*
X297116Y195116D01*
X142000Y178933D02*
X142034Y178966D01*
X142000Y190744D02*
X285628D01*
X300500Y197500D02*
X303000Y200000D01*
X142213Y202768D02*
X231308D01*
X290354Y200444D02*
X290456Y200341D01*
X231308Y202768D02*
X231367Y202828D01*
X290456Y194044D02*
Y200341D01*
X142000Y214366D02*
X312006D01*
X142000Y237988D02*
X299884D01*
X142000Y226177D02*
X304823D01*
X307575Y195116D02*
X308005Y195545D01*
X297116Y195116D02*
X307575D01*
X279000Y182000D02*
X285000Y188000D01*
X285628Y190744D02*
X286256Y190116D01*
X290456Y194044D02*
X290500Y194000D01*
X142000Y202555D02*
X142213Y202768D01*
X142000Y167122D02*
X142189Y167311D01*
X238508Y143500D02*
X240012Y145004D01*
X370376D02*
X378884Y153512D01*
X240012Y145004D02*
X370376D01*
X142000Y143500D02*
X238508D01*
X367684Y209000D02*
X368184Y208500D01*
X368500D01*
X353500Y209000D02*
X367684D01*
X317044Y202828D02*
X342276Y177595D01*
X231367Y202828D02*
X317044D01*
X286256Y190116D02*
X318800D01*
X142034Y178966D02*
X329966D01*
X330000Y179000D01*
X315024Y206000D02*
X315854Y206830D01*
X290000Y206000D02*
X315024D01*
X315854Y206830D02*
X316170D01*
X303000Y200000D02*
X316500D01*
X316684Y193000D02*
X317000D01*
X316184Y192500D02*
X316684Y193000D01*
X308005Y195545D02*
X318527D01*
X299000Y192500D02*
X316184D01*
X310000Y184000D02*
X331000D01*
X342276Y177224D02*
X342500Y177000D01*
X342276Y177224D02*
Y177595D01*
X142189Y167311D02*
X348311D01*
X348500Y167500D01*
X357276Y167224D02*
Y169095D01*
Y167224D02*
X357500Y167000D01*
X142000Y155311D02*
X148189Y161500D01*
X371500Y210184D02*
X372500Y211184D01*
X382500Y185500D02*
Y190508D01*
X371500Y173000D02*
Y210184D01*
X380116Y163384D02*
Y211746D01*
Y163384D02*
X382500Y161000D01*
X356500Y158500D02*
X368500D01*
X148189Y161500D02*
X359500D01*
X372500Y211184D02*
Y211500D01*
X380116Y211746D02*
X394091Y225721D01*
X349500Y151500D02*
X356500Y158500D01*
X382500Y190508D02*
X394091Y202098D01*
X304823Y226177D02*
X376500Y154500D01*
X394091Y143043D02*
Y143781D01*
X299884Y237988D02*
X394091Y143781D01*
X371500Y219500D02*
X383000D01*
X318800Y190116D02*
X319498Y190814D01*
X319814D01*
X331000Y184000D02*
X334500Y180500D01*
X349000Y173000D02*
X353500Y168500D01*
X324500Y173000D02*
X349000D01*
X312006Y214366D02*
X357276Y169095D01*
X378884Y153512D02*
Y155616D01*
X340500Y194000D02*
X378884Y155616D01*
D17*
X368500Y114500D02*
D03*
Y266075D02*
D03*
X167591Y266531D02*
D03*
Y114957D02*
D03*
D18*
X394091Y237531D02*
D03*
Y225721D02*
D03*
Y213910D02*
D03*
Y202098D02*
D03*
Y190287D02*
D03*
Y178476D02*
D03*
Y166665D02*
D03*
Y154854D02*
D03*
Y143043D02*
D03*
X403933Y231626D02*
D03*
Y219815D02*
D03*
Y208004D02*
D03*
Y196193D02*
D03*
Y184382D02*
D03*
Y172571D02*
D03*
Y160760D02*
D03*
Y148949D02*
D03*
X415744Y231626D02*
D03*
Y219815D02*
D03*
Y208004D02*
D03*
Y196193D02*
D03*
Y184382D02*
D03*
Y172571D02*
D03*
Y160760D02*
D03*
Y148949D02*
D03*
X425587Y237531D02*
D03*
Y225721D02*
D03*
Y213910D02*
D03*
Y202098D02*
D03*
Y190287D02*
D03*
Y178476D02*
D03*
Y166665D02*
D03*
Y154854D02*
D03*
Y143043D02*
D03*
X142000Y143500D02*
D03*
Y155311D02*
D03*
Y167122D02*
D03*
Y178933D02*
D03*
Y190744D02*
D03*
Y202555D02*
D03*
Y214366D02*
D03*
Y226177D02*
D03*
Y237988D02*
D03*
X132158Y149406D02*
D03*
Y161216D02*
D03*
Y173028D02*
D03*
Y184839D02*
D03*
Y196650D02*
D03*
Y208461D02*
D03*
Y220272D02*
D03*
Y232083D02*
D03*
X120346Y149406D02*
D03*
Y161216D02*
D03*
Y173028D02*
D03*
Y184839D02*
D03*
Y196650D02*
D03*
Y208461D02*
D03*
Y220272D02*
D03*
Y232083D02*
D03*
X110504Y143500D02*
D03*
Y155311D02*
D03*
Y167122D02*
D03*
Y178933D02*
D03*
Y190744D02*
D03*
Y202555D02*
D03*
Y214366D02*
D03*
Y226177D02*
D03*
Y237988D02*
D03*
D19*
X290500Y194000D02*
D03*
X290354Y200444D02*
D03*
X279000Y182000D02*
D03*
X285000Y188000D02*
D03*
X300500Y197500D02*
D03*
X290000Y206000D02*
D03*
X310000Y184000D02*
D03*
X299000Y192500D02*
D03*
X295000Y193000D02*
D03*
X381500Y245500D02*
D03*
X428805Y246126D02*
D03*
X409963Y239963D02*
D03*
X405033Y241480D02*
D03*
X258000Y137500D02*
D03*
X416000Y141000D02*
D03*
X241000Y142620D02*
D03*
X433500Y246000D02*
D03*
Y172500D02*
D03*
X411000Y189885D02*
D03*
X409500Y142000D02*
D03*
X353500Y209000D02*
D03*
X411433Y246933D02*
D03*
X316170Y206830D02*
D03*
X316500Y200000D02*
D03*
X317000Y193000D02*
D03*
X318527Y195545D02*
D03*
X342500Y177000D02*
D03*
X348500Y167500D02*
D03*
X357500Y167000D02*
D03*
X349500Y151500D02*
D03*
X359500Y161500D02*
D03*
X382500Y185500D02*
D03*
X371500Y173000D02*
D03*
X368500Y158500D02*
D03*
X376500Y154500D02*
D03*
X382500Y161000D02*
D03*
X371500Y219500D02*
D03*
X324500Y173000D02*
D03*
X383000Y219500D02*
D03*
X319814Y190814D02*
D03*
X368500Y208500D02*
D03*
X372500Y211500D02*
D03*
X334500Y180500D02*
D03*
X353500Y168500D02*
D03*
X330000Y179000D02*
D03*
X340500Y194000D02*
D03*
M02*
