G04*
G04 #@! TF.GenerationSoftware,Altium Limited,Altium Designer,22.5.1 (42)*
G04*
G04 Layer_Color=128*
%FSLAX25Y25*%
%MOIN*%
G70*
G04*
G04 #@! TF.SameCoordinates,C106D3DF-9627-4863-B2E5-E2E0062BA835*
G04*
G04*
G04 #@! TF.FilePolarity,Positive*
G04*
G01*
G75*
%ADD22C,0.00200*%
D22*
X27149Y14710D02*
X40141D01*
X33645Y8214D02*
Y21206D01*
X27149Y166285D02*
X40141D01*
X33645Y159789D02*
Y172781D01*
X56677Y137742D02*
X61795D01*
X59236Y135183D02*
Y140301D01*
X56677Y125931D02*
X61795D01*
X59236Y123372D02*
Y128490D01*
X56677Y114120D02*
X61795D01*
X59236Y111561D02*
Y116679D01*
X56677Y102309D02*
X61795D01*
X59236Y99750D02*
Y104868D01*
X56677Y90498D02*
X61795D01*
X59236Y87939D02*
Y93057D01*
X56677Y78687D02*
X61795D01*
X59236Y76128D02*
Y81246D01*
X56677Y66876D02*
X61795D01*
X59236Y64317D02*
Y69435D01*
X56677Y55065D02*
X61795D01*
X59236Y52505D02*
Y57624D01*
X56677Y43254D02*
X61795D01*
X59236Y40694D02*
Y45813D01*
X66519Y131836D02*
X71637D01*
X69078Y129277D02*
Y134395D01*
X66519Y120025D02*
X71637D01*
X69078Y117466D02*
Y122584D01*
X66519Y108214D02*
X71637D01*
X69078Y105655D02*
Y110773D01*
X66519Y96403D02*
X71637D01*
X69078Y93844D02*
Y98962D01*
X66519Y84592D02*
X71637D01*
X69078Y82033D02*
Y87151D01*
X66519Y72781D02*
X71637D01*
X69078Y70222D02*
Y75340D01*
X66519Y60970D02*
X71637D01*
X69078Y58411D02*
Y63529D01*
X66519Y49159D02*
X71637D01*
X69078Y46600D02*
Y51718D01*
X78330Y131836D02*
X83448D01*
X80889Y129277D02*
Y134395D01*
X78330Y120025D02*
X83448D01*
X80889Y117466D02*
Y122584D01*
X78330Y108214D02*
X83448D01*
X80889Y105655D02*
Y110773D01*
X78330Y96403D02*
X83448D01*
X80889Y93844D02*
Y98962D01*
X78330Y84592D02*
X83448D01*
X80889Y82033D02*
Y87151D01*
X78330Y72781D02*
X83448D01*
X80889Y70222D02*
Y75340D01*
X78330Y60970D02*
X83448D01*
X80889Y58411D02*
Y63529D01*
X78330Y49159D02*
X83448D01*
X80889Y46600D02*
Y51718D01*
X88173Y137742D02*
X93291D01*
X90732Y135183D02*
Y140301D01*
X88173Y125931D02*
X93291D01*
X90732Y123372D02*
Y128490D01*
X88173Y114120D02*
X93291D01*
X90732Y111561D02*
Y116679D01*
X88173Y102309D02*
X93291D01*
X90732Y99750D02*
Y104868D01*
X88173Y90498D02*
X93291D01*
X90732Y87939D02*
Y93057D01*
X88173Y78687D02*
X93291D01*
X90732Y76128D02*
Y81246D01*
X88173Y66876D02*
X93291D01*
X90732Y64317D02*
Y69435D01*
X88173Y55065D02*
X93291D01*
X90732Y52505D02*
Y57624D01*
X88173Y43254D02*
X93291D01*
X90732Y40694D02*
Y45813D01*
X290173Y167191D02*
X303165D01*
X296669Y160695D02*
Y173687D01*
X290173Y15616D02*
X303165D01*
X296669Y9120D02*
Y22112D01*
X268519Y44159D02*
X273637D01*
X271078Y41600D02*
Y46718D01*
X268519Y55970D02*
X273637D01*
X271078Y53411D02*
Y58529D01*
X268519Y67781D02*
X273637D01*
X271078Y65222D02*
Y70340D01*
X268519Y79592D02*
X273637D01*
X271078Y77033D02*
Y82151D01*
X268519Y91403D02*
X273637D01*
X271078Y88844D02*
Y93962D01*
X268519Y103214D02*
X273637D01*
X271078Y100655D02*
Y105773D01*
X268519Y115025D02*
X273637D01*
X271078Y112466D02*
Y117584D01*
X268519Y126836D02*
X273637D01*
X271078Y124277D02*
Y129395D01*
X268519Y138647D02*
X273637D01*
X271078Y136088D02*
Y141206D01*
X258677Y50065D02*
X263795D01*
X261236Y47506D02*
Y52624D01*
X258677Y61876D02*
X263795D01*
X261236Y59317D02*
Y64435D01*
X258677Y73687D02*
X263795D01*
X261236Y71128D02*
Y76246D01*
X258677Y85498D02*
X263795D01*
X261236Y82939D02*
Y88057D01*
X258677Y97309D02*
X263795D01*
X261236Y94750D02*
Y99868D01*
X258677Y109120D02*
X263795D01*
X261236Y106561D02*
Y111679D01*
X258677Y120931D02*
X263795D01*
X261236Y118372D02*
Y123490D01*
X258677Y132742D02*
X263795D01*
X261236Y130183D02*
Y135301D01*
X246866Y50065D02*
X251984D01*
X249425Y47506D02*
Y52624D01*
X246866Y61876D02*
X251984D01*
X249425Y59317D02*
Y64435D01*
X246866Y73687D02*
X251984D01*
X249425Y71128D02*
Y76246D01*
X246866Y85498D02*
X251984D01*
X249425Y82939D02*
Y88057D01*
X246866Y97309D02*
X251984D01*
X249425Y94750D02*
Y99868D01*
X246866Y109120D02*
X251984D01*
X249425Y106561D02*
Y111679D01*
X246866Y120931D02*
X251984D01*
X249425Y118372D02*
Y123490D01*
X246866Y132742D02*
X251984D01*
X249425Y130183D02*
Y135301D01*
X237023Y44159D02*
X242141D01*
X239582Y41600D02*
Y46718D01*
X237023Y55970D02*
X242141D01*
X239582Y53411D02*
Y58529D01*
X237023Y67781D02*
X242141D01*
X239582Y65222D02*
Y70340D01*
X237023Y79592D02*
X242141D01*
X239582Y77033D02*
Y82151D01*
X237023Y91403D02*
X242141D01*
X239582Y88844D02*
Y93962D01*
X237023Y103214D02*
X242141D01*
X239582Y100655D02*
Y105773D01*
X237023Y115025D02*
X242141D01*
X239582Y112466D02*
Y117584D01*
X237023Y126836D02*
X242141D01*
X239582Y124277D02*
Y129395D01*
X237023Y138647D02*
X242141D01*
X239582Y136088D02*
Y141206D01*
X284110Y49655D02*
X288047D01*
X286078Y47687D02*
Y51624D01*
X290425Y55078D02*
X294362D01*
X292393Y53110D02*
Y57047D01*
X296425Y61078D02*
X300362D01*
X298393Y59110D02*
Y63047D01*
X302425Y67078D02*
X306362D01*
X304393Y65110D02*
Y69047D01*
X309110Y73449D02*
X313047D01*
X311078Y71481D02*
Y75418D01*
X315433Y79237D02*
X319370D01*
X317401Y77268D02*
Y81205D01*
X321220Y86078D02*
X325157D01*
X323189Y84110D02*
Y88047D01*
X2936Y90078D02*
X6872D01*
X4904Y88110D02*
Y92047D01*
X9250Y84183D02*
X13187D01*
X11219Y82214D02*
Y86151D01*
X15038Y78277D02*
X18975D01*
X17007Y76309D02*
Y80246D01*
X20826Y72372D02*
X24763D01*
X22794Y70403D02*
Y74340D01*
X26613Y66215D02*
X30550D01*
X28582Y64246D02*
Y68183D01*
X32928Y60462D02*
X36865D01*
X34897Y58494D02*
Y62431D01*
X38716Y54655D02*
X42653D01*
X40685Y52687D02*
Y56624D01*
X44400Y48750D02*
X48337D01*
X46369Y46781D02*
Y50718D01*
X197101Y49640D02*
X201038D01*
X199069Y47671D02*
Y51608D01*
X169735Y48910D02*
X173672D01*
X171703Y46941D02*
Y50878D01*
X149647Y44567D02*
X153584D01*
X151615Y42599D02*
Y46536D01*
X190259Y45237D02*
X194195D01*
X192227Y43269D02*
Y47206D01*
X163039Y45121D02*
X166976D01*
X165008Y43153D02*
Y47090D01*
X203962Y45237D02*
X207899D01*
X205931Y43269D02*
Y47206D01*
X122248Y45016D02*
X126184D01*
X124216Y43047D02*
Y46984D01*
X210805Y49420D02*
X214742D01*
X212773Y47451D02*
Y51388D01*
X115522Y48750D02*
X119458D01*
X117490Y46781D02*
Y50718D01*
X135443Y45237D02*
X139380D01*
X137411Y43269D02*
Y47206D01*
X176555Y45237D02*
X180492D01*
X178523Y43269D02*
Y47206D01*
X142362Y48600D02*
X146299D01*
X144331Y46631D02*
Y50568D01*
X183397Y49031D02*
X187334D01*
X185365Y47063D02*
Y50999D01*
X156484Y49148D02*
X160421D01*
X158453Y47179D02*
Y51116D01*
X128562Y49527D02*
X132499D01*
X130531Y47558D02*
Y51495D01*
M02*
