G04*
G04 #@! TF.GenerationSoftware,Altium Limited,Altium Designer,22.5.1 (42)*
G04*
G04 Layer_Color=2752767*
%FSLAX25Y25*%
%MOIN*%
G70*
G04*
G04 #@! TF.SameCoordinates,C106D3DF-9627-4863-B2E5-E2E0062BA835*
G04*
G04*
G04 #@! TF.FilePolarity,Positive*
G04*
G01*
G75*
%ADD21C,0.00267*%
%ADD22C,0.00200*%
D21*
X34445Y14710D02*
X33892Y15471D01*
X32998Y15180D01*
Y14240D01*
X33892Y13949D01*
X34445Y14710D01*
Y166285D02*
X33892Y167046D01*
X32998Y166755D01*
Y165815D01*
X33892Y165524D01*
X34445Y166285D01*
X297469Y167191D02*
X296916Y167951D01*
X296022Y167661D01*
Y166720D01*
X296916Y166430D01*
X297469Y167191D01*
Y15616D02*
X296916Y16377D01*
X296022Y16086D01*
Y15146D01*
X296916Y14855D01*
X297469Y15616D01*
D22*
X58436Y136942D02*
Y138542D01*
X60036D01*
Y136942D01*
X58436D01*
Y125131D02*
Y126731D01*
X60036D01*
Y125131D01*
X58436D01*
Y113320D02*
Y114920D01*
X60036D01*
Y113320D01*
X58436D01*
Y101509D02*
Y103109D01*
X60036D01*
Y101509D01*
X58436D01*
Y89698D02*
Y91298D01*
X60036D01*
Y89698D01*
X58436D01*
Y77887D02*
Y79487D01*
X60036D01*
Y77887D01*
X58436D01*
Y66076D02*
Y67676D01*
X60036D01*
Y66076D01*
X58436D01*
Y54265D02*
Y55865D01*
X60036D01*
Y54265D01*
X58436D01*
Y42454D02*
Y44054D01*
X60036D01*
Y42454D01*
X58436D01*
X68278Y131036D02*
Y132636D01*
X69878D01*
Y131036D01*
X68278D01*
Y119225D02*
Y120825D01*
X69878D01*
Y119225D01*
X68278D01*
Y107414D02*
Y109014D01*
X69878D01*
Y107414D01*
X68278D01*
Y95603D02*
Y97203D01*
X69878D01*
Y95603D01*
X68278D01*
Y83792D02*
Y85392D01*
X69878D01*
Y83792D01*
X68278D01*
Y71981D02*
Y73581D01*
X69878D01*
Y71981D01*
X68278D01*
Y60170D02*
Y61770D01*
X69878D01*
Y60170D01*
X68278D01*
Y48359D02*
Y49959D01*
X69878D01*
Y48359D01*
X68278D01*
X80089Y131036D02*
Y132636D01*
X81689D01*
Y131036D01*
X80089D01*
Y119225D02*
Y120825D01*
X81689D01*
Y119225D01*
X80089D01*
Y107414D02*
Y109014D01*
X81689D01*
Y107414D01*
X80089D01*
Y95603D02*
Y97203D01*
X81689D01*
Y95603D01*
X80089D01*
Y83792D02*
Y85392D01*
X81689D01*
Y83792D01*
X80089D01*
Y71981D02*
Y73581D01*
X81689D01*
Y71981D01*
X80089D01*
Y60170D02*
Y61770D01*
X81689D01*
Y60170D01*
X80089D01*
Y48359D02*
Y49959D01*
X81689D01*
Y48359D01*
X80089D01*
X89932Y136942D02*
Y138542D01*
X91532D01*
Y136942D01*
X89932D01*
Y125131D02*
Y126731D01*
X91532D01*
Y125131D01*
X89932D01*
Y113320D02*
Y114920D01*
X91532D01*
Y113320D01*
X89932D01*
Y101509D02*
Y103109D01*
X91532D01*
Y101509D01*
X89932D01*
Y89698D02*
Y91298D01*
X91532D01*
Y89698D01*
X89932D01*
Y77887D02*
Y79487D01*
X91532D01*
Y77887D01*
X89932D01*
Y66076D02*
Y67676D01*
X91532D01*
Y66076D01*
X89932D01*
Y54265D02*
Y55865D01*
X91532D01*
Y54265D01*
X89932D01*
Y42454D02*
Y44054D01*
X91532D01*
Y42454D01*
X89932D01*
X270278Y43359D02*
Y44959D01*
X271878D01*
Y43359D01*
X270278D01*
Y55170D02*
Y56770D01*
X271878D01*
Y55170D01*
X270278D01*
Y66981D02*
Y68581D01*
X271878D01*
Y66981D01*
X270278D01*
Y78792D02*
Y80392D01*
X271878D01*
Y78792D01*
X270278D01*
Y90603D02*
Y92203D01*
X271878D01*
Y90603D01*
X270278D01*
Y102414D02*
Y104014D01*
X271878D01*
Y102414D01*
X270278D01*
Y114225D02*
Y115825D01*
X271878D01*
Y114225D01*
X270278D01*
Y126036D02*
Y127636D01*
X271878D01*
Y126036D01*
X270278D01*
Y137847D02*
Y139447D01*
X271878D01*
Y137847D01*
X270278D01*
X260436Y49265D02*
Y50865D01*
X262036D01*
Y49265D01*
X260436D01*
Y61076D02*
Y62676D01*
X262036D01*
Y61076D01*
X260436D01*
Y72887D02*
Y74487D01*
X262036D01*
Y72887D01*
X260436D01*
Y84698D02*
Y86298D01*
X262036D01*
Y84698D01*
X260436D01*
Y96509D02*
Y98109D01*
X262036D01*
Y96509D01*
X260436D01*
Y108320D02*
Y109920D01*
X262036D01*
Y108320D01*
X260436D01*
Y120131D02*
Y121731D01*
X262036D01*
Y120131D01*
X260436D01*
Y131942D02*
Y133542D01*
X262036D01*
Y131942D01*
X260436D01*
X248625Y49265D02*
Y50865D01*
X250225D01*
Y49265D01*
X248625D01*
Y61076D02*
Y62676D01*
X250225D01*
Y61076D01*
X248625D01*
Y72887D02*
Y74487D01*
X250225D01*
Y72887D01*
X248625D01*
Y84698D02*
Y86298D01*
X250225D01*
Y84698D01*
X248625D01*
Y96509D02*
Y98109D01*
X250225D01*
Y96509D01*
X248625D01*
Y108320D02*
Y109920D01*
X250225D01*
Y108320D01*
X248625D01*
Y120131D02*
Y121731D01*
X250225D01*
Y120131D01*
X248625D01*
Y131942D02*
Y133542D01*
X250225D01*
Y131942D01*
X248625D01*
X238782Y43359D02*
Y44959D01*
X240382D01*
Y43359D01*
X238782D01*
Y55170D02*
Y56770D01*
X240382D01*
Y55170D01*
X238782D01*
Y66981D02*
Y68581D01*
X240382D01*
Y66981D01*
X238782D01*
Y78792D02*
Y80392D01*
X240382D01*
Y78792D01*
X238782D01*
Y90603D02*
Y92203D01*
X240382D01*
Y90603D01*
X238782D01*
Y102414D02*
Y104014D01*
X240382D01*
Y102414D01*
X238782D01*
Y114225D02*
Y115825D01*
X240382D01*
Y114225D01*
X238782D01*
Y126036D02*
Y127636D01*
X240382D01*
Y126036D01*
X238782D01*
Y137847D02*
Y139447D01*
X240382D01*
Y137847D01*
X238782D01*
X286078Y48855D02*
X285278Y50455D01*
X286878D01*
X286078Y48855D01*
X292393Y54278D02*
X291593Y55878D01*
X293193D01*
X292393Y54278D01*
X298393Y60278D02*
X297593Y61878D01*
X299193D01*
X298393Y60278D01*
X304393Y66278D02*
X303593Y67878D01*
X305193D01*
X304393Y66278D01*
X311078Y72649D02*
X310278Y74249D01*
X311878D01*
X311078Y72649D01*
X317401Y78437D02*
X316601Y80037D01*
X318201D01*
X317401Y78437D01*
X323189Y85278D02*
X322389Y86878D01*
X323989D01*
X323189Y85278D01*
X4904Y89278D02*
X4104Y90878D01*
X5704D01*
X4904Y89278D01*
X11219Y83383D02*
X10419Y84983D01*
X12019D01*
X11219Y83383D01*
X17007Y77477D02*
X16207Y79077D01*
X17807D01*
X17007Y77477D01*
X22794Y71572D02*
X21994Y73172D01*
X23594D01*
X22794Y71572D01*
X28582Y65415D02*
X27782Y67015D01*
X29382D01*
X28582Y65415D01*
X34897Y59662D02*
X34097Y61263D01*
X35697D01*
X34897Y59662D01*
X40685Y53855D02*
X39884Y55455D01*
X41484D01*
X40685Y53855D01*
X46369Y47950D02*
X45568Y49550D01*
X47168D01*
X46369Y47950D01*
X199069Y48840D02*
X198269Y50440D01*
X199869D01*
X199069Y48840D01*
X171703Y48110D02*
X170903Y49710D01*
X172503D01*
X171703Y48110D01*
X151615Y43767D02*
X150815Y45367D01*
X152415D01*
X151615Y43767D01*
X192227Y44437D02*
X191427Y46037D01*
X193027D01*
X192227Y44437D01*
X165008Y44321D02*
X164208Y45921D01*
X165808D01*
X165008Y44321D01*
X205931Y44437D02*
X205131Y46037D01*
X206731D01*
X205931Y44437D01*
X124216Y44216D02*
X123416Y45816D01*
X125016D01*
X124216Y44216D01*
X212773Y48620D02*
X211973Y50220D01*
X213573D01*
X212773Y48620D01*
X117490Y47950D02*
X116690Y49550D01*
X118290D01*
X117490Y47950D01*
X137411Y44437D02*
X136611Y46037D01*
X138211D01*
X137411Y44437D01*
X178523D02*
X177723Y46037D01*
X179323D01*
X178523Y44437D01*
X144331Y47800D02*
X143530Y49400D01*
X145131D01*
X144331Y47800D01*
X185365Y48231D02*
X184565Y49831D01*
X186165D01*
X185365Y48231D01*
X158453Y48348D02*
X157653Y49948D01*
X159253D01*
X158453Y48348D01*
X130531Y48727D02*
X129731Y50327D01*
X131331D01*
X130531Y48727D01*
M02*
