G04*
G04 #@! TF.GenerationSoftware,Altium Limited,Altium Designer,22.4.2 (48)*
G04*
G04 Layer_Color=32896*
%FSLAX25Y25*%
%MOIN*%
G70*
G04*
G04 #@! TF.SameCoordinates,6C7EA4D3-1DBA-4452-8A60-7FA1E15C8F26*
G04*
G04*
G04 #@! TF.FilePolarity,Positive*
G04*
G01*
G75*
%ADD10C,0.01000*%
%ADD12C,0.04000*%
%ADD20C,0.02953*%
D10*
X122333Y277000D02*
X119334D01*
Y275500D01*
X119834Y275001D01*
X120834D01*
X121334Y275500D01*
Y277000D01*
X122333Y274001D02*
Y273001D01*
Y273501D01*
X120334D01*
Y274001D01*
X122333Y271502D02*
X120334D01*
Y270002D01*
X120834Y269502D01*
X122333D01*
Y265504D02*
Y264504D01*
Y265004D01*
X119334D01*
X119834Y265504D01*
X122333Y261505D02*
X119334D01*
X120834Y263004D01*
Y261005D01*
X424500Y104500D02*
X427499D01*
Y106000D01*
X426999Y106499D01*
X425999D01*
X425500Y106000D01*
Y104500D01*
X424500Y107499D02*
Y108499D01*
Y107999D01*
X426499D01*
Y107499D01*
X424500Y109998D02*
X426499D01*
Y111498D01*
X425999Y111997D01*
X424500D01*
Y117996D02*
Y115996D01*
X426499Y117996D01*
X426999D01*
X427499Y117496D01*
Y116496D01*
X426999Y115996D01*
Y118995D02*
X427499Y119495D01*
Y120495D01*
X426999Y120995D01*
X425000D01*
X424500Y120495D01*
Y119495D01*
X425000Y118995D01*
X426999D01*
X392000Y104500D02*
X394999D01*
Y106000D01*
X394499Y106499D01*
X393499D01*
X393000Y106000D01*
Y104500D01*
X392000Y107499D02*
Y108499D01*
Y107999D01*
X393999D01*
Y107499D01*
X392000Y109998D02*
X393999D01*
Y111498D01*
X393499Y111998D01*
X392000D01*
Y115996D02*
Y116996D01*
Y116496D01*
X394999D01*
X394499Y115996D01*
X144000Y277000D02*
X141001D01*
Y275500D01*
X141501Y275001D01*
X142500D01*
X143000Y275500D01*
Y277000D01*
X144000Y274001D02*
Y273001D01*
Y273501D01*
X142001D01*
Y274001D01*
X144000Y271502D02*
X142001D01*
Y270002D01*
X142500Y269502D01*
X144000D01*
Y265504D02*
Y264504D01*
Y265004D01*
X141001D01*
X141501Y265504D01*
X131000Y135000D02*
Y137999D01*
X129001Y135000D01*
Y137999D01*
X127501Y135000D02*
X126501D01*
X126002Y135500D01*
Y136499D01*
X126501Y136999D01*
X127501D01*
X128001Y136499D01*
Y135500D01*
X127501Y135000D01*
X125002Y134000D02*
Y136999D01*
X123502D01*
X123003Y136499D01*
Y135500D01*
X123502Y135000D01*
X125002D01*
X120503D02*
X121503D01*
X122003Y135500D01*
Y136499D01*
X121503Y136999D01*
X120503D01*
X120004Y136499D01*
Y135999D01*
X122003D01*
X413667Y104500D02*
X416666D01*
Y106000D01*
X416166Y106499D01*
X415166D01*
X414666Y106000D01*
Y104500D01*
X413667Y107499D02*
Y108499D01*
Y107999D01*
X415666D01*
Y107499D01*
X413667Y109998D02*
X415666D01*
Y111498D01*
X415166Y111998D01*
X413667D01*
Y115996D02*
Y116996D01*
Y116496D01*
X416666D01*
X416166Y115996D01*
X413667Y119995D02*
X416666D01*
X415166Y118496D01*
Y120495D01*
X111500Y277000D02*
X108501D01*
Y275500D01*
X109001Y275001D01*
X110001D01*
X110500Y275500D01*
Y277000D01*
X111500Y274001D02*
Y273001D01*
Y273501D01*
X109501D01*
Y274001D01*
X111500Y271502D02*
X109501D01*
Y270002D01*
X110001Y269502D01*
X111500D01*
Y263504D02*
Y265504D01*
X109501Y263504D01*
X109001D01*
X108501Y264004D01*
Y265004D01*
X109001Y265504D01*
Y262505D02*
X108501Y262005D01*
Y261005D01*
X109001Y260505D01*
X111000D01*
X111500Y261005D01*
Y262005D01*
X111000Y262505D01*
X109001D01*
X405500Y245500D02*
Y242501D01*
X407499Y245500D01*
Y242501D01*
X408999Y245500D02*
X409999D01*
X410498Y245001D01*
Y244001D01*
X409999Y243501D01*
X408999D01*
X408499Y244001D01*
Y245001D01*
X408999Y245500D01*
X411498Y246500D02*
Y243501D01*
X412998D01*
X413497Y244001D01*
Y245001D01*
X412998Y245500D01*
X411498D01*
X415997D02*
X414997D01*
X414497Y245001D01*
Y244001D01*
X414997Y243501D01*
X415997D01*
X416496Y244001D01*
Y244501D01*
X414497D01*
X402833Y104500D02*
X405832D01*
Y106000D01*
X405333Y106499D01*
X404333D01*
X403833Y106000D01*
Y104500D01*
X402833Y107499D02*
Y108499D01*
Y107999D01*
X404833D01*
Y107499D01*
X402833Y109998D02*
X404833D01*
Y111498D01*
X404333Y111997D01*
X402833D01*
X405333Y115996D02*
X405832Y116496D01*
Y117496D01*
X405333Y117996D01*
X404833D01*
X404333Y117496D01*
X403833Y117996D01*
X403333D01*
X402833Y117496D01*
Y116496D01*
X403333Y115996D01*
X403833D01*
X404333Y116496D01*
X404833Y115996D01*
X405333D01*
X404333Y116496D02*
Y117496D01*
X133167Y277000D02*
X130168D01*
Y275500D01*
X130667Y275001D01*
X131667D01*
X132167Y275500D01*
Y277000D01*
X133167Y274001D02*
Y273001D01*
Y273501D01*
X131167D01*
Y274001D01*
X133167Y271502D02*
X131167D01*
Y270002D01*
X131667Y269502D01*
X133167D01*
X130667Y265504D02*
X130168Y265004D01*
Y264004D01*
X130667Y263504D01*
X131167D01*
X131667Y264004D01*
X132167Y263504D01*
X132667D01*
X133167Y264004D01*
Y265004D01*
X132667Y265504D01*
X132167D01*
X131667Y265004D01*
X131167Y265504D01*
X130667D01*
X131667Y265004D02*
Y264004D01*
D12*
X283503Y186000D02*
X291500D01*
X283503Y193997D01*
Y195997D01*
X285502Y197996D01*
X289501D01*
X291500Y195997D01*
X271507Y197996D02*
X275505Y195997D01*
X279504Y191998D01*
Y187999D01*
X277504Y186000D01*
X273506D01*
X271507Y187999D01*
Y189999D01*
X273506Y191998D01*
X279504D01*
X255512Y186000D02*
Y197996D01*
X249514D01*
X247514Y195997D01*
Y191998D01*
X249514Y189999D01*
X255512D01*
X243515Y186000D02*
X239517D01*
X241516D01*
Y193997D01*
X243515D01*
X233519Y186000D02*
Y193997D01*
X227521D01*
X225521Y191998D01*
Y186000D01*
D20*
X433000Y220500D02*
Y245500D01*
X423500D02*
X433000D01*
X417000Y239000D02*
X423500Y245500D01*
X404000Y239000D02*
X417000D01*
X397500Y245500D02*
X404000Y239000D01*
X386000Y245500D02*
X397500D01*
X386000Y220500D02*
Y245500D01*
X150500Y135000D02*
Y160000D01*
X139000Y135000D02*
X150500D01*
X132500Y141500D02*
X139000Y135000D01*
X119500Y141500D02*
X132500D01*
X113000Y135000D02*
X119500Y141500D01*
X103500Y135000D02*
X113000D01*
X103500D02*
Y160000D01*
M02*
