G04*
G04 #@! TF.GenerationSoftware,Altium Limited,Altium Designer,22.4.2 (48)*
G04*
G04 Layer_Physical_Order=4*
G04 Layer_Color=16711680*
%FSLAX25Y25*%
%MOIN*%
G70*
G04*
G04 #@! TF.SameCoordinates,6C7EA4D3-1DBA-4452-8A60-7FA1E15C8F26*
G04*
G04*
G04 #@! TF.FilePolarity,Positive*
G04*
G01*
G75*
%ADD15C,0.00500*%
%ADD16C,0.00800*%
%ADD17C,0.12992*%
%ADD18C,0.08661*%
%ADD19C,0.01968*%
D15*
X381500Y245500D02*
X396560D01*
X402814Y239246D01*
X396514Y250000D02*
X405033Y241480D01*
X404963Y137463D02*
X409500Y142000D01*
X241766Y139734D02*
X322228D01*
X241000Y140500D02*
X241766Y139734D01*
X110846Y135266D02*
X425701D01*
X431167Y140732D01*
X324500Y137463D02*
X404963D01*
X104923Y141188D02*
X110846Y135266D01*
X322228Y139734D02*
X324500Y137463D01*
X241000Y140500D02*
Y142620D01*
X410507Y244699D02*
X426312D01*
X431167Y160435D02*
Y239843D01*
X426312Y244699D02*
X431167Y239843D01*
X425587Y154854D02*
X431167Y160435D01*
X420006Y164390D02*
X420198Y164198D01*
X420500Y175671D02*
X421325Y174846D01*
X421222Y193778D02*
Y193815D01*
X421000Y169934D02*
Y169971D01*
X421222Y193815D02*
X424425Y197018D01*
X421325Y170296D02*
Y174846D01*
X420006Y152579D02*
Y157129D01*
X420198Y164162D02*
X421325Y163035D01*
X420006Y187994D02*
X421325Y186675D01*
X420006Y176201D02*
X420500Y175707D01*
X420006Y192562D02*
X421222Y193778D01*
X420006Y180751D02*
X421000Y181746D01*
X424425Y197018D02*
Y200936D01*
X409514Y166990D02*
Y186694D01*
X408766Y187442D02*
X409514Y186694D01*
X404205Y239246D02*
X409514Y233938D01*
X408766Y187442D02*
Y193133D01*
X420500Y175671D02*
Y175707D01*
X421000Y169971D02*
X421325Y170296D01*
X423847Y148702D02*
X427820D01*
X420006Y176201D02*
Y180751D01*
X421325Y182107D02*
Y186675D01*
X421000Y181782D02*
X421325Y182107D01*
X420006Y164390D02*
Y168940D01*
X409514Y166990D02*
X415744Y160760D01*
X420198Y164162D02*
Y164198D01*
X420006Y187994D02*
Y192562D01*
X427820Y148702D02*
X431167Y145355D01*
X420006Y152579D02*
X420500Y152085D01*
Y152049D02*
Y152085D01*
X421000Y158123D02*
Y158160D01*
X420006Y157129D02*
X421000Y158123D01*
X420500Y152049D02*
X423847Y148702D01*
X421000Y181746D02*
Y181782D01*
X431167Y140732D02*
Y145355D01*
X420006Y168940D02*
X421000Y169934D01*
X421325Y158485D02*
Y163035D01*
X424425Y200936D02*
X425587Y202098D01*
X421000Y158160D02*
X421325Y158485D01*
X104923Y141188D02*
Y173352D01*
X110504Y178933D01*
X409514Y193881D02*
Y233938D01*
X408766Y193133D02*
X409514Y193881D01*
X411170Y190055D02*
Y191619D01*
X411000Y189885D02*
X411170Y190055D01*
Y191619D02*
X415744Y196193D01*
X402814Y239246D02*
X404205D01*
X403706Y251500D02*
X410507Y244699D01*
X116123Y251500D02*
X403706D01*
X104923Y240300D02*
X116123Y251500D01*
X104923Y235677D02*
X109342Y231258D01*
X104923Y235677D02*
Y240300D01*
X109342Y227339D02*
X110504Y226177D01*
X109342Y227339D02*
Y231258D01*
X126577Y234394D02*
X142183Y250000D01*
X396514D01*
X126577Y214691D02*
Y234394D01*
X120346Y208461D02*
X126577Y214691D01*
D16*
X132158Y220272D02*
X286191D01*
X132158Y208461D02*
X294042D01*
X132158Y232083D02*
X276926D01*
X312316Y196693D01*
X294042Y208461D02*
X294042Y208461D01*
X294261Y208280D02*
X294265Y208275D01*
X294266D02*
X302233Y201684D01*
X294265Y208275D02*
X294266D01*
X294042Y208461D02*
X294261Y208280D01*
X293285Y199884D02*
X301488D01*
X290000Y206000D02*
X290206Y205794D01*
X290050Y196650D02*
X293285Y199884D01*
X290206Y200591D02*
X290354Y200444D01*
X290206Y200591D02*
Y205794D01*
X301384Y191512D02*
Y196300D01*
X302233Y201684D02*
X302233D01*
X305632Y188368D02*
Y195740D01*
X310516Y190484D02*
Y195947D01*
X301488Y199884D02*
X305632Y195740D01*
X312316Y193312D02*
Y196693D01*
X300500Y197184D02*
X301384Y196300D01*
X302233Y201684D02*
X308716Y195202D01*
X305632Y188368D02*
X310000Y184000D01*
X313786Y202016D02*
Y207817D01*
Y202016D02*
X314116Y201686D01*
Y195884D02*
Y201686D01*
X300500Y197184D02*
Y197500D01*
X308716Y188784D02*
Y195202D01*
X286839Y184839D02*
X295000Y193000D01*
X270028Y173028D02*
X279000Y182000D01*
X285000Y188000D02*
Y188250D01*
X290500Y193750D02*
Y194000D01*
X285000Y188250D02*
X290500Y193750D01*
X286191Y220272D02*
X310516Y195947D01*
X132158Y184839D02*
X286839D01*
X132158Y173028D02*
X270028D01*
X132158Y196650D02*
X290050D01*
X340500Y194000D02*
X346367D01*
X366251Y213884D01*
X316500Y200000D02*
X347872D01*
X363556Y215684D01*
X371056D01*
X366251Y213884D02*
X371802D01*
X318340Y209000D02*
X353500D01*
X316170Y206830D02*
X318340Y209000D01*
X325468Y219500D02*
X371500D01*
X313786Y207817D02*
X325468Y219500D01*
X314116Y195884D02*
X317000Y193000D01*
X318527Y195545D02*
X322457Y191616D01*
X342500Y177000D02*
X382536D01*
X380872Y180500D02*
X384754Y184382D01*
X334500Y180500D02*
X380872D01*
X348500Y167500D02*
X354000Y173000D01*
X357667Y166833D02*
X393923D01*
X357500Y167000D02*
X357667Y166833D01*
X336128Y185500D02*
X382500D01*
X359500Y161500D02*
X381684D01*
X354000Y173000D02*
X371500D01*
X310516Y190484D02*
X349500Y151500D01*
X332116Y181488D02*
X336128Y185500D01*
X368500Y158500D02*
X383570D01*
X385830Y160760D01*
X381684Y161500D02*
X382184Y161000D01*
X376677Y154677D02*
X393913D01*
X376500Y154500D02*
X376677Y154677D01*
X382184Y161000D02*
X382500D01*
X391717Y243262D02*
X396464D01*
X402570Y232989D02*
Y237157D01*
X396464Y243262D02*
X402570Y237157D01*
X381386Y226015D02*
Y232932D01*
X391717Y243262D01*
X402570Y232989D02*
X403933Y231626D01*
X371056Y215684D02*
X381386Y226015D01*
X371802Y213884D02*
X394091Y236173D01*
Y237531D01*
X312316Y193312D02*
X356679Y148949D01*
X132158Y149406D02*
X259277D01*
X308716Y188784D02*
X324500Y173000D01*
X356679Y148949D02*
X403933D01*
X267717Y161216D02*
X299000Y192500D01*
X259277Y149406D02*
X301384Y191512D01*
X132158Y161216D02*
X267717D01*
X403776Y219657D02*
X403933Y219815D01*
X383157Y219657D02*
X403776D01*
X383000Y219500D02*
X383157Y219657D01*
X321129Y189816D02*
X393619D01*
X319814Y190814D02*
X320130D01*
X363913Y196193D02*
X403933D01*
X320130Y190814D02*
X321129Y189816D01*
X322457Y191616D02*
X359336D01*
X369312Y208004D02*
X403933D01*
X368816Y208500D02*
X369312Y208004D01*
X368500Y208500D02*
X368816D01*
X372500Y211500D02*
X374909Y213910D01*
X394091D01*
X359336Y191616D02*
X363913Y196193D01*
X393619Y189816D02*
X394091Y190287D01*
X384754Y184382D02*
X403933D01*
X332116Y181116D02*
Y181488D01*
X330000Y179000D02*
X332116Y181116D01*
X353500Y168500D02*
X355560Y170560D01*
X372432D01*
X374443Y172571D01*
X403933D01*
X382536Y177000D02*
X383138Y177602D01*
X393587Y177972D01*
X385830Y160760D02*
X403933D01*
X393923Y166833D02*
X394091Y166665D01*
X393587Y177972D02*
X394091Y178476D01*
X393913Y154677D02*
X394091Y154854D01*
D17*
X368500Y114500D02*
D03*
Y266075D02*
D03*
X167591Y266531D02*
D03*
Y114957D02*
D03*
D18*
X394091Y237531D02*
D03*
Y225721D02*
D03*
Y213910D02*
D03*
Y202098D02*
D03*
Y190287D02*
D03*
Y178476D02*
D03*
Y166665D02*
D03*
Y154854D02*
D03*
Y143043D02*
D03*
X403933Y231626D02*
D03*
Y219815D02*
D03*
Y208004D02*
D03*
Y196193D02*
D03*
Y184382D02*
D03*
Y172571D02*
D03*
Y160760D02*
D03*
Y148949D02*
D03*
X415744Y231626D02*
D03*
Y219815D02*
D03*
Y208004D02*
D03*
Y196193D02*
D03*
Y184382D02*
D03*
Y172571D02*
D03*
Y160760D02*
D03*
Y148949D02*
D03*
X425587Y237531D02*
D03*
Y225721D02*
D03*
Y213910D02*
D03*
Y202098D02*
D03*
Y190287D02*
D03*
Y178476D02*
D03*
Y166665D02*
D03*
Y154854D02*
D03*
Y143043D02*
D03*
X142000Y143500D02*
D03*
Y155311D02*
D03*
Y167122D02*
D03*
Y178933D02*
D03*
Y190744D02*
D03*
Y202555D02*
D03*
Y214366D02*
D03*
Y226177D02*
D03*
Y237988D02*
D03*
X132158Y149406D02*
D03*
Y161216D02*
D03*
Y173028D02*
D03*
Y184839D02*
D03*
Y196650D02*
D03*
Y208461D02*
D03*
Y220272D02*
D03*
Y232083D02*
D03*
X120346Y149406D02*
D03*
Y161216D02*
D03*
Y173028D02*
D03*
Y184839D02*
D03*
Y196650D02*
D03*
Y208461D02*
D03*
Y220272D02*
D03*
Y232083D02*
D03*
X110504Y143500D02*
D03*
Y155311D02*
D03*
Y167122D02*
D03*
Y178933D02*
D03*
Y190744D02*
D03*
Y202555D02*
D03*
Y214366D02*
D03*
Y226177D02*
D03*
Y237988D02*
D03*
D19*
X290500Y194000D02*
D03*
X290354Y200444D02*
D03*
X279000Y182000D02*
D03*
X285000Y188000D02*
D03*
X300500Y197500D02*
D03*
X290000Y206000D02*
D03*
X310000Y184000D02*
D03*
X299000Y192500D02*
D03*
X295000Y193000D02*
D03*
X381500Y245500D02*
D03*
X428805Y246126D02*
D03*
X409963Y239963D02*
D03*
X405033Y241480D02*
D03*
X258000Y137500D02*
D03*
X416000Y141000D02*
D03*
X241000Y142620D02*
D03*
X433500Y246000D02*
D03*
Y172500D02*
D03*
X411000Y189885D02*
D03*
X409500Y142000D02*
D03*
X353500Y209000D02*
D03*
X411433Y246933D02*
D03*
X316170Y206830D02*
D03*
X316500Y200000D02*
D03*
X317000Y193000D02*
D03*
X318527Y195545D02*
D03*
X342500Y177000D02*
D03*
X348500Y167500D02*
D03*
X357500Y167000D02*
D03*
X349500Y151500D02*
D03*
X359500Y161500D02*
D03*
X382500Y185500D02*
D03*
X371500Y173000D02*
D03*
X368500Y158500D02*
D03*
X376500Y154500D02*
D03*
X382500Y161000D02*
D03*
X371500Y219500D02*
D03*
X324500Y173000D02*
D03*
X383000Y219500D02*
D03*
X319814Y190814D02*
D03*
X368500Y208500D02*
D03*
X372500Y211500D02*
D03*
X334500Y180500D02*
D03*
X353500Y168500D02*
D03*
X330000Y179000D02*
D03*
X340500Y194000D02*
D03*
M02*
