G04*
G04 #@! TF.GenerationSoftware,Altium Limited,Altium Designer,22.5.1 (42)*
G04*
G04 Layer_Physical_Order=1*
G04 Layer_Color=255*
%FSLAX25Y25*%
%MOIN*%
G70*
G04*
G04 #@! TF.SameCoordinates,C106D3DF-9627-4863-B2E5-E2E0062BA835*
G04*
G04*
G04 #@! TF.FilePolarity,Positive*
G04*
G01*
G75*
%ADD15C,0.01140*%
%ADD16C,0.03937*%
%ADD17C,0.12992*%
%ADD18C,0.08661*%
%ADD19C,0.06693*%
D15*
X54819Y49159D02*
X69078D01*
X54818Y60970D02*
X63653D01*
X54818Y72781D02*
X63653D01*
X54818Y84592D02*
X63653D01*
X54818Y96403D02*
X63653D01*
X54818Y108214D02*
X63653D01*
X54819Y120025D02*
X63653D01*
X54819Y131836D02*
X63653D01*
X93078Y131836D02*
X93078Y131836D01*
X95149Y96403D02*
X95149Y96403D01*
X89756Y72781D02*
X95149D01*
X88288Y84597D02*
X95154D01*
X86315Y49159D02*
X95149D01*
X93078Y131836D02*
X95149D01*
X95154Y84597D02*
X95183Y84626D01*
X95149Y108214D02*
X95149Y108214D01*
X54819Y49159D02*
X54819Y49159D01*
X86315Y72781D02*
X89756D01*
X89756Y72781D01*
X86315Y60970D02*
X95078D01*
X86315Y131836D02*
X93078D01*
X86315Y120025D02*
X95149D01*
X54819Y120025D02*
X54819Y120025D01*
X86315Y108214D02*
X95149D01*
X86315Y96403D02*
X95149D01*
D16*
X69078Y49159D02*
X69078Y49159D01*
X63653Y49159D02*
X69078D01*
X63653Y60970D02*
X69078D01*
X69078Y60970D01*
X63653Y72781D02*
X69078D01*
X69078Y72781D01*
X63653Y84592D02*
X69078D01*
X69078Y84592D01*
X69078Y96403D02*
X69078Y96403D01*
X63653Y96403D02*
X69078D01*
Y108214D02*
X69078Y108214D01*
X63653Y108214D02*
X69078D01*
Y120025D02*
X69078Y120025D01*
X63653Y120025D02*
X69078D01*
Y131836D02*
X69078Y131836D01*
X63653Y131836D02*
X69078D01*
X286078Y49655D02*
Y140952D01*
X292078Y55393D02*
Y141934D01*
X276147Y150883D02*
X286078Y140952D01*
X292078Y55393D02*
X292393Y55078D01*
X298078Y61393D02*
Y142916D01*
X278192Y155821D02*
X292078Y141934D01*
X298078Y61393D02*
X298393Y61078D01*
X304078Y67393D02*
Y143898D01*
X280237Y160758D02*
X298078Y142916D01*
X304078Y67393D02*
X304393Y67078D01*
X282281Y165694D02*
X304078Y143898D01*
X311078Y73449D02*
X311086Y73457D01*
Y166158D01*
X323189Y86078D02*
Y168019D01*
X304679Y186529D02*
X323189Y168019D01*
X316874Y79764D02*
X317401Y79237D01*
X316874Y79764D02*
Y167352D01*
X300589Y176655D02*
X311086Y166158D01*
X302634Y181592D02*
X316874Y167352D01*
X33522Y186529D02*
X304679D01*
X278377Y52377D02*
Y141671D01*
X271078Y44159D02*
Y45078D01*
X278377Y52377D01*
X274102Y145947D02*
X278377Y141671D01*
X4904Y90078D02*
X5323Y90498D01*
X59236D01*
X11219Y84183D02*
X11628Y84592D01*
X54818D01*
X17007Y78277D02*
X17416Y78687D01*
X59236D01*
X23204Y72781D02*
X54818D01*
X22794Y72372D02*
X23204Y72781D01*
X32379Y66876D02*
X59236D01*
X28582Y66215D02*
X29109Y66742D01*
X32246D01*
X32379Y66876D01*
X35404Y60970D02*
X54818D01*
X34897Y60462D02*
X35404Y60970D01*
X40685Y54655D02*
X41094Y55065D01*
X59236D01*
X46778Y49159D02*
X54819D01*
X46369Y48750D02*
X46778Y49159D01*
X57965Y160758D02*
X280237D01*
X35567Y181592D02*
X302634D01*
X24181Y170205D02*
X35567Y181592D01*
X32188Y148945D02*
X59899Y176655D01*
X48360Y96403D02*
X54818D01*
X19243Y125519D02*
Y172250D01*
X33522Y186529D01*
X19243Y125519D02*
X48360Y96403D01*
X59899Y176655D02*
X300589D01*
X59236Y137742D02*
X67440Y145947D01*
X42062Y144855D02*
X57965Y160758D01*
X55920Y165694D02*
X282281D01*
X62055Y150883D02*
X276147D01*
X60010Y155821D02*
X278192D01*
X67440Y145947D02*
X274102D01*
X46999Y142810D02*
X60010Y155821D01*
X37125Y146900D02*
X55920Y165694D01*
X51937Y140765D02*
X62055Y150883D01*
X24181Y127564D02*
X49000Y102745D01*
X32188Y126538D02*
Y148945D01*
Y126538D02*
X50513Y108214D01*
X54818D01*
X49000Y102745D02*
X58799D01*
X46999Y132673D02*
X52838Y126835D01*
X46999Y132673D02*
Y142810D01*
X37125Y128583D02*
Y146900D01*
X95149Y120025D02*
X134037D01*
X90732Y90498D02*
X128655D01*
X164811Y54341D01*
X95149Y131836D02*
X95149Y131836D01*
X52666Y120025D02*
X54819D01*
X130024Y103092D02*
X178523Y54593D01*
X95149Y131836D02*
X136190D01*
X212246Y55780D01*
X134037Y120025D02*
X198542Y55520D01*
X95149Y108214D02*
X131884D01*
X135114Y125931D02*
X205931Y55113D01*
X90732Y102309D02*
X91515Y103092D01*
X90732Y137742D02*
X137429D01*
X131884Y108214D02*
X184838Y55260D01*
X132960Y114120D02*
X192227Y54853D01*
X90732Y114120D02*
X132960D01*
X58332Y115024D02*
X59236Y114120D01*
X42062Y130628D02*
X52666Y120025D01*
X95149Y96403D02*
X129731D01*
X91515Y103092D02*
X130024D01*
X90732Y125931D02*
X135114D01*
X129731Y96403D02*
X171176Y54958D01*
X137429Y137742D02*
X231011Y44159D01*
X58799Y102745D02*
X59236Y102309D01*
X51937Y134718D02*
X54819Y131836D01*
X24181Y127564D02*
Y170205D01*
X52838Y126835D02*
X58332D01*
X80889Y72781D02*
X86315D01*
X80889Y60970D02*
X86315D01*
X80889Y49159D02*
X80889Y49159D01*
X95183Y84626D02*
X127544D01*
X123805Y45427D02*
X124216Y45016D01*
X121200Y60970D02*
X129221Y52950D01*
X127544Y84626D02*
X158133Y54038D01*
X117081Y49159D02*
X117490Y48750D01*
X184838Y49558D02*
Y55260D01*
X95149Y49159D02*
X117081D01*
X80889Y131836D02*
X80889Y131836D01*
X95149Y72781D02*
X124418D01*
X80889Y120025D02*
X80889Y120025D01*
X178523Y45237D02*
Y54593D01*
X143803Y49127D02*
X144331Y48600D01*
X80889Y108214D02*
X86315D01*
X151615Y44567D02*
Y53230D01*
X50685Y115024D02*
X58332D01*
Y126835D02*
X59236Y125931D01*
X80889Y96403D02*
X80889Y96403D01*
X198542Y50167D02*
X199069Y49640D01*
X80889Y84592D02*
X80889Y84592D01*
X80889Y72781D02*
X80889Y72781D01*
X37125Y128583D02*
X50685Y115024D01*
X80889Y60970D02*
X80889Y60970D01*
X164811Y45318D02*
Y54341D01*
X80889Y49159D02*
X86315D01*
X95078Y60970D02*
X121200D01*
X164811Y45318D02*
X165008Y45121D01*
X120106Y55065D02*
X123805Y51365D01*
X130004Y50054D02*
X130531Y49527D01*
X158133Y49468D02*
Y54038D01*
X90732Y55065D02*
X120106D01*
X51937Y134718D02*
Y140765D01*
X171176Y49437D02*
X171703Y48910D01*
X129221Y52714D02*
X130004Y51931D01*
X80889Y131836D02*
X86315D01*
X205931Y45237D02*
Y55113D01*
X143803Y49127D02*
Y53396D01*
X80889Y120025D02*
X86315D01*
X171176Y49437D02*
Y54958D01*
X90732Y66876D02*
X123342D01*
X42062Y130628D02*
Y144855D01*
X80889Y108214D02*
X80889Y108214D01*
X212246Y49947D02*
Y55780D01*
X126450Y78396D02*
X151615Y53230D01*
X80889Y96403D02*
X86315D01*
X80889Y84592D02*
X86315D01*
X231011Y44159D02*
X239582D01*
X90732Y78687D02*
X91023Y78396D01*
X95149Y49159D02*
X95149Y49159D01*
X130004Y50054D02*
Y51931D01*
X129221Y52714D02*
Y52950D01*
X158133Y49468D02*
X158453Y49148D01*
X123805Y45427D02*
Y51365D01*
X137411Y45237D02*
Y52806D01*
X184838Y49558D02*
X185365Y49031D01*
X124418Y72781D02*
X143803Y53396D01*
X192227Y45237D02*
Y54853D01*
X123342Y66876D02*
X137411Y52806D01*
X212246Y49947D02*
X212773Y49420D01*
X91023Y78396D02*
X126450D01*
X198542Y50167D02*
Y55520D01*
D17*
X33645Y14710D02*
D03*
Y166285D02*
D03*
X296669Y167191D02*
D03*
Y15616D02*
D03*
D18*
X59236Y137742D02*
D03*
Y125931D02*
D03*
Y114120D02*
D03*
Y102309D02*
D03*
Y90498D02*
D03*
Y78687D02*
D03*
Y66876D02*
D03*
Y55065D02*
D03*
Y43254D02*
D03*
X69078Y131836D02*
D03*
Y120025D02*
D03*
Y108214D02*
D03*
Y96403D02*
D03*
Y84592D02*
D03*
Y72781D02*
D03*
Y60970D02*
D03*
Y49159D02*
D03*
X80889Y131836D02*
D03*
Y120025D02*
D03*
Y108214D02*
D03*
Y96403D02*
D03*
Y84592D02*
D03*
Y72781D02*
D03*
Y60970D02*
D03*
Y49159D02*
D03*
X90732Y137742D02*
D03*
Y125931D02*
D03*
Y114120D02*
D03*
Y102309D02*
D03*
Y90498D02*
D03*
Y78687D02*
D03*
Y66876D02*
D03*
Y55065D02*
D03*
Y43254D02*
D03*
X271078Y44159D02*
D03*
Y55970D02*
D03*
Y67781D02*
D03*
Y79592D02*
D03*
Y91403D02*
D03*
Y103214D02*
D03*
Y115025D02*
D03*
Y126836D02*
D03*
Y138647D02*
D03*
X261236Y50065D02*
D03*
Y61876D02*
D03*
Y73687D02*
D03*
Y85498D02*
D03*
Y97309D02*
D03*
Y109120D02*
D03*
Y120931D02*
D03*
Y132742D02*
D03*
X249425Y50065D02*
D03*
Y61876D02*
D03*
Y73687D02*
D03*
Y85498D02*
D03*
Y97309D02*
D03*
Y109120D02*
D03*
Y120931D02*
D03*
Y132742D02*
D03*
X239582Y44159D02*
D03*
Y55970D02*
D03*
Y67781D02*
D03*
Y79592D02*
D03*
Y91403D02*
D03*
Y103214D02*
D03*
Y115025D02*
D03*
Y126836D02*
D03*
Y138647D02*
D03*
D19*
X286078Y49655D02*
D03*
X292393Y55078D02*
D03*
X298393Y61078D02*
D03*
X304393Y67078D02*
D03*
X311078Y73449D02*
D03*
X317401Y79237D02*
D03*
X323189Y86078D02*
D03*
X4904Y90078D02*
D03*
X11219Y84183D02*
D03*
X17007Y78277D02*
D03*
X22794Y72372D02*
D03*
X28582Y66215D02*
D03*
X34897Y60462D02*
D03*
X40685Y54655D02*
D03*
X46369Y48750D02*
D03*
X199069Y49640D02*
D03*
X171703Y48910D02*
D03*
X151615Y44567D02*
D03*
X192227Y45237D02*
D03*
X165008Y45121D02*
D03*
X205931Y45237D02*
D03*
X124216Y45016D02*
D03*
X212773Y49420D02*
D03*
X117490Y48750D02*
D03*
X137411Y45237D02*
D03*
X178523D02*
D03*
X144331Y48600D02*
D03*
X185365Y49031D02*
D03*
X158453Y49148D02*
D03*
X130531Y49527D02*
D03*
M02*
