M48
;Layer_Color=9474304
;FILE_FORMAT=2:4
INCH,TZ
;TYPE=PLATED
T1F00S00C0.0118
T2F00S00C0.0512
;TYPE=NON_PLATED
T3F00S00C0.1299
%
T01
X24100Y14262
X25800Y13750
X34950Y15150
X37650Y15450
X40950Y14200
X41600Y14100
X43350Y17250
X41100Y18988
X38250Y18550
X37150Y17300
X36850Y15850
X35950Y16150
X35750Y16700
X35350Y16850
X34850Y16750
X34250Y17700
X33450Y18050
X33000Y17900
X32450Y17300
X31981Y19081
X31700Y19300
X31853Y19555
X31650Y20000
X31617Y20683
X34050Y19400
X35350Y20900
X36850Y20850
X37250Y21150
X37150Y21950
X38300
X38150Y24550
X40503Y24148
X40996Y23996
X41143Y24693
X42881Y24613
X43350Y24600
X38250Y16100
X31000Y18400
X29900Y19250
X29500Y19300
X29050Y19400
X29035Y20044
X29000Y20600
X30050Y19750
X28500Y18800
X27900Y18200
T02
X11050Y14350
Y15531
X12035Y14941
X13216
X14200Y14350
Y15531
X39409Y15485
Y14304
X40393Y14895
X41574
X42559Y15485
Y14304
Y16667
Y17848
Y19029
Y20210
Y21391
Y22572
Y23753
X41574Y23163
X40393
Y21981
X41574
Y20800
X40393
Y19619
Y18438
X41574
Y19619
Y17257
X40393
Y16076
X41574
X39409Y16667
Y17848
Y19029
Y20210
Y21391
Y22572
Y23753
X14200Y23799
Y22618
Y21437
Y20256
Y19074
Y17893
Y16712
X13216Y16122
X12035
Y17303
X13216
Y18484
Y19665
X12035
Y18484
X11050Y17893
Y19074
Y20256
Y21437
Y22618
Y23799
X12035Y23208
X13216
Y22027
Y20846
X12035
Y22027
X11050Y16712
T03
X16759Y11496
X36850Y11450
Y26607
X16759Y26653
M30
