G04*
G04 #@! TF.GenerationSoftware,Altium Limited,Altium Designer,22.5.1 (42)*
G04*
G04 Layer_Color=32896*
%FSLAX25Y25*%
%MOIN*%
G70*
G04*
G04 #@! TF.SameCoordinates,C106D3DF-9627-4863-B2E5-E2E0062BA835*
G04*
G04*
G04 #@! TF.FilePolarity,Positive*
G04*
G01*
G75*
%ADD10C,0.01000*%
%ADD11C,0.04000*%
%ADD20C,0.02953*%
D10*
X247912Y8092D02*
X250910D01*
Y9592D01*
X250411Y10091D01*
X249411D01*
X248911Y9592D01*
Y8092D01*
X247912Y11091D02*
Y12091D01*
Y11591D01*
X249911D01*
Y11091D01*
X247912Y13590D02*
X249911D01*
Y15090D01*
X249411Y15590D01*
X247912D01*
X250411Y19588D02*
X250910Y20088D01*
Y21088D01*
X250411Y21588D01*
X249911D01*
X249411Y21088D01*
X248911Y21588D01*
X248411D01*
X247912Y21088D01*
Y20088D01*
X248411Y19588D01*
X248911D01*
X249411Y20088D01*
X249911Y19588D01*
X250411D01*
X249411Y20088D02*
Y21088D01*
X269578Y8092D02*
X272577D01*
Y9592D01*
X272077Y10091D01*
X271078D01*
X270578Y9592D01*
Y8092D01*
X269578Y11091D02*
Y12091D01*
Y11591D01*
X271578D01*
Y11091D01*
X269578Y13590D02*
X271578D01*
Y15090D01*
X271078Y15590D01*
X269578D01*
Y21588D02*
Y19588D01*
X271578Y21588D01*
X272077D01*
X272577Y21088D01*
Y20088D01*
X272077Y19588D01*
Y22587D02*
X272577Y23087D01*
Y24087D01*
X272077Y24587D01*
X270078D01*
X269578Y24087D01*
Y23087D01*
X270078Y22587D01*
X272077D01*
X250578Y149092D02*
Y146093D01*
X252578Y149092D01*
Y146093D01*
X254077Y149092D02*
X255077D01*
X255577Y148593D01*
Y147593D01*
X255077Y147093D01*
X254077D01*
X253577Y147593D01*
Y148593D01*
X254077Y149092D01*
X256576Y150092D02*
Y147093D01*
X258076D01*
X258576Y147593D01*
Y148593D01*
X258076Y149092D01*
X256576D01*
X261075D02*
X260075D01*
X259575Y148593D01*
Y147593D01*
X260075Y147093D01*
X261075D01*
X261575Y147593D01*
Y148093D01*
X259575D01*
X81245Y176592D02*
X78246D01*
Y175093D01*
X78746Y174593D01*
X79745D01*
X80245Y175093D01*
Y176592D01*
X81245Y173593D02*
Y172593D01*
Y173093D01*
X79246D01*
Y173593D01*
X81245Y171094D02*
X79246D01*
Y169594D01*
X79745Y169095D01*
X81245D01*
X78746Y165096D02*
X78246Y164596D01*
Y163596D01*
X78746Y163096D01*
X79246D01*
X79745Y163596D01*
X80245Y163096D01*
X80745D01*
X81245Y163596D01*
Y164596D01*
X80745Y165096D01*
X80245D01*
X79745Y164596D01*
X79246Y165096D01*
X78746D01*
X79745Y164596D02*
Y163596D01*
X70411Y176592D02*
X67413D01*
Y175093D01*
X67912Y174593D01*
X68912D01*
X69412Y175093D01*
Y176592D01*
X70411Y173593D02*
Y172593D01*
Y173093D01*
X68412D01*
Y173593D01*
X70411Y171094D02*
X68412D01*
Y169594D01*
X68912Y169095D01*
X70411D01*
Y165096D02*
Y164096D01*
Y164596D01*
X67413D01*
X67912Y165096D01*
X70411Y161097D02*
X67413D01*
X68912Y162597D01*
Y160597D01*
X237078Y8092D02*
X240077D01*
Y9592D01*
X239577Y10091D01*
X238578D01*
X238078Y9592D01*
Y8092D01*
X237078Y11091D02*
Y12091D01*
Y11591D01*
X239078D01*
Y11091D01*
X237078Y13590D02*
X239078D01*
Y15090D01*
X238578Y15590D01*
X237078D01*
Y19589D02*
Y20588D01*
Y20088D01*
X240077D01*
X239577Y19589D01*
X79078Y34592D02*
Y37591D01*
X77079Y34592D01*
Y37591D01*
X75579Y34592D02*
X74580D01*
X74080Y35092D01*
Y36091D01*
X74580Y36591D01*
X75579D01*
X76079Y36091D01*
Y35092D01*
X75579Y34592D01*
X73080Y33592D02*
Y36591D01*
X71581D01*
X71081Y36091D01*
Y35092D01*
X71581Y34592D01*
X73080D01*
X68582D02*
X69581D01*
X70081Y35092D01*
Y36091D01*
X69581Y36591D01*
X68582D01*
X68082Y36091D01*
Y35592D01*
X70081D01*
X258745Y8092D02*
X261744D01*
Y9592D01*
X261244Y10091D01*
X260244D01*
X259745Y9592D01*
Y8092D01*
X258745Y11091D02*
Y12091D01*
Y11591D01*
X260744D01*
Y11091D01*
X258745Y13590D02*
X260744D01*
Y15090D01*
X260244Y15590D01*
X258745D01*
Y19589D02*
Y20588D01*
Y20088D01*
X261744D01*
X261244Y19589D01*
X258745Y23587D02*
X261744D01*
X260244Y22088D01*
Y24087D01*
X59578Y176592D02*
X56579D01*
Y175093D01*
X57079Y174593D01*
X58079D01*
X58578Y175093D01*
Y176592D01*
X59578Y173593D02*
Y172593D01*
Y173093D01*
X57579D01*
Y173593D01*
X59578Y171094D02*
X57579D01*
Y169594D01*
X58079Y169095D01*
X59578D01*
Y163096D02*
Y165096D01*
X57579Y163096D01*
X57079D01*
X56579Y163596D01*
Y164596D01*
X57079Y165096D01*
Y162097D02*
X56579Y161597D01*
Y160597D01*
X57079Y160098D01*
X59078D01*
X59578Y160597D01*
Y161597D01*
X59078Y162097D01*
X57079D01*
X92078Y176592D02*
X89079D01*
Y175093D01*
X89579Y174593D01*
X90579D01*
X91079Y175093D01*
Y176592D01*
X92078Y173593D02*
Y172593D01*
Y173093D01*
X90079D01*
Y173593D01*
X92078Y171094D02*
X90079D01*
Y169594D01*
X90579Y169095D01*
X92078D01*
Y165096D02*
Y164096D01*
Y164596D01*
X89079D01*
X89579Y165096D01*
D11*
X187581Y83592D02*
X195578D01*
X187581Y91590D01*
Y93589D01*
X189580Y95588D01*
X193579D01*
X195578Y93589D01*
X175585Y95588D02*
X179583Y93589D01*
X183582Y89590D01*
Y85592D01*
X181583Y83592D01*
X177584D01*
X175585Y85592D01*
Y87591D01*
X177584Y89590D01*
X183582D01*
X159590Y83592D02*
Y95588D01*
X153592D01*
X151592Y93589D01*
Y89590D01*
X153592Y87591D01*
X159590D01*
X147594Y83592D02*
X143595D01*
X145594D01*
Y91590D01*
X147594D01*
X137597Y83592D02*
Y91590D01*
X131599D01*
X129599Y89590D01*
Y83592D01*
D20*
X51578Y34592D02*
Y59592D01*
X67578Y41092D02*
X80578D01*
X98578Y34592D02*
Y59592D01*
X242578Y149092D02*
X249078Y142592D01*
X268578Y149092D02*
X278078D01*
X51578Y34592D02*
X61078D01*
X80578Y41092D02*
X87078Y34592D01*
X231078Y124092D02*
Y149092D01*
X249078Y142592D02*
X262078D01*
X278078Y124092D02*
Y149092D01*
X61078Y34592D02*
X67578Y41092D01*
X87078Y34592D02*
X98578D01*
X231078Y149092D02*
X242578D01*
X262078Y142592D02*
X268578Y149092D01*
M02*
