G04*
G04 #@! TF.GenerationSoftware,Altium Limited,Altium Designer,22.4.2 (48)*
G04*
G04 Layer_Physical_Order=3*
G04 Layer_Color=16440176*
%FSLAX25Y25*%
%MOIN*%
G70*
G04*
G04 #@! TF.SameCoordinates,6C7EA4D3-1DBA-4452-8A60-7FA1E15C8F26*
G04*
G04*
G04 #@! TF.FilePolarity,Positive*
G04*
G01*
G75*
%ADD15C,0.00500*%
%ADD17C,0.12992*%
%ADD18C,0.08661*%
%ADD19C,0.01968*%
D15*
X287941Y167441D02*
Y168119D01*
X290050Y196709D02*
X291900D01*
X289428Y198209D02*
X291279D01*
X367822Y248000D02*
X401925D01*
X409963Y239963D01*
X405239Y241480D02*
X409514Y237205D01*
X405033Y241480D02*
X405239D01*
X412094Y243112D02*
X427898D01*
X404206Y251000D02*
X412094Y243112D01*
X403585Y249500D02*
X415744Y237341D01*
X427898Y243112D02*
X431167Y239843D01*
X415744Y231626D02*
Y237341D01*
X291900Y196709D02*
X344691Y249500D01*
X403585D01*
X344070Y251000D02*
X404206D01*
X291279Y198209D02*
X344070Y251000D01*
X287941Y168119D02*
X367822Y248000D01*
X125927Y233745D02*
X144683Y252500D01*
X405866D01*
X411433Y246933D01*
X258000Y137500D02*
X287941Y167441D01*
X409487Y178828D02*
X415744Y172571D01*
X408766Y188301D02*
X409514Y187553D01*
Y182720D02*
Y187553D01*
X409487Y178828D02*
Y182693D01*
X408766Y188301D02*
Y193133D01*
X409514Y193881D02*
Y237205D01*
X408766Y193133D02*
X409514Y193881D01*
X409487Y182693D02*
X409514Y182720D01*
X111192Y134919D02*
X425355D01*
X104923Y141188D02*
X111192Y134919D01*
X425355D02*
X432199Y141764D01*
X420006Y192562D02*
X421000Y193556D01*
Y186982D02*
X421325Y186657D01*
X420006Y187994D02*
Y192562D01*
X421325Y158485D02*
Y163035D01*
X420604Y175567D02*
Y175604D01*
X421325Y170296D02*
Y174846D01*
X420006Y152579D02*
Y157129D01*
X420859Y163500D02*
Y163537D01*
X421043Y151506D02*
Y151543D01*
X421325Y193918D02*
Y198468D01*
X420415Y199415D02*
X421165Y198665D01*
X420604Y175567D02*
X421325Y174846D01*
X420006Y164390D02*
X420859Y163537D01*
X420006Y204373D02*
X421000Y205367D01*
Y193593D02*
X421325Y193918D01*
Y182107D02*
Y186657D01*
X420006Y176201D02*
Y180751D01*
Y168940D02*
X421000Y169934D01*
X421043Y151506D02*
X421325Y151224D01*
X420006Y152579D02*
X421043Y151543D01*
X421325Y146674D02*
Y151224D01*
X421000Y205367D02*
Y205404D01*
X424425Y208829D01*
X421000Y186982D02*
Y187000D01*
Y193556D02*
Y193593D01*
X420006Y199823D02*
X420415Y199415D01*
X424425Y208829D02*
Y212748D01*
X421000Y181782D02*
X421325Y182107D01*
X421000Y169971D02*
X421325Y170296D01*
X421000Y169934D02*
Y169971D01*
X420006Y187994D02*
X421000Y187000D01*
X424425Y212748D02*
X425587Y213910D01*
X420006Y180751D02*
X421000Y181746D01*
X420859Y163500D02*
X421325Y163035D01*
X421000Y181746D02*
Y181782D01*
Y158124D02*
Y158160D01*
X420006Y199823D02*
Y204373D01*
X421000Y158160D02*
X421325Y158485D01*
X420006Y176201D02*
X420604Y175604D01*
X420006Y157129D02*
X421000Y158124D01*
X420415Y199415D02*
Y199415D01*
X416000Y141000D02*
X420006Y145006D01*
X421165Y198628D02*
X421325Y198468D01*
X420006Y145318D02*
X421000Y146312D01*
X420006Y145006D02*
Y145318D01*
X432199Y141764D02*
Y160053D01*
X421000Y146312D02*
Y146349D01*
X425587Y166665D02*
X432199Y160053D01*
X421000Y146349D02*
X421325Y146674D01*
X420006Y164390D02*
Y168940D01*
X421165Y198628D02*
Y198665D01*
X104923Y204867D02*
X109342Y209285D01*
Y213204D01*
X104923Y141188D02*
Y204867D01*
X109342Y213204D02*
X110504Y214366D01*
X229138Y137919D02*
X289428Y198209D01*
X135751Y137919D02*
X229138D01*
X125927Y147743D02*
X135751Y137919D01*
X125927Y147743D02*
Y155636D01*
X120346Y161216D02*
X125927Y155636D01*
X229760Y136419D02*
X290050Y196709D01*
X133333Y136419D02*
X229760D01*
X120346Y149406D02*
X133333Y136419D01*
X415744Y219815D02*
X427573D01*
X431167Y223409D01*
Y239843D01*
X125927Y202230D02*
Y233745D01*
X120346Y196650D02*
X125927Y202230D01*
D17*
X368500Y114500D02*
D03*
Y266075D02*
D03*
X167591Y266531D02*
D03*
Y114957D02*
D03*
D18*
X394091Y237531D02*
D03*
Y225721D02*
D03*
Y213910D02*
D03*
Y202098D02*
D03*
Y190287D02*
D03*
Y178476D02*
D03*
Y166665D02*
D03*
Y154854D02*
D03*
Y143043D02*
D03*
X403933Y231626D02*
D03*
Y219815D02*
D03*
Y208004D02*
D03*
Y196193D02*
D03*
Y184382D02*
D03*
Y172571D02*
D03*
Y160760D02*
D03*
Y148949D02*
D03*
X415744Y231626D02*
D03*
Y219815D02*
D03*
Y208004D02*
D03*
Y196193D02*
D03*
Y184382D02*
D03*
Y172571D02*
D03*
Y160760D02*
D03*
Y148949D02*
D03*
X425587Y237531D02*
D03*
Y225721D02*
D03*
Y213910D02*
D03*
Y202098D02*
D03*
Y190287D02*
D03*
Y178476D02*
D03*
Y166665D02*
D03*
Y154854D02*
D03*
Y143043D02*
D03*
X142000Y143500D02*
D03*
Y155311D02*
D03*
Y167122D02*
D03*
Y178933D02*
D03*
Y190744D02*
D03*
Y202555D02*
D03*
Y214366D02*
D03*
Y226177D02*
D03*
Y237988D02*
D03*
X132158Y149406D02*
D03*
Y161216D02*
D03*
Y173028D02*
D03*
Y184839D02*
D03*
Y196650D02*
D03*
Y208461D02*
D03*
Y220272D02*
D03*
Y232083D02*
D03*
X120346Y149406D02*
D03*
Y161216D02*
D03*
Y173028D02*
D03*
Y184839D02*
D03*
Y196650D02*
D03*
Y208461D02*
D03*
Y220272D02*
D03*
Y232083D02*
D03*
X110504Y143500D02*
D03*
Y155311D02*
D03*
Y167122D02*
D03*
Y178933D02*
D03*
Y190744D02*
D03*
Y202555D02*
D03*
Y214366D02*
D03*
Y226177D02*
D03*
Y237988D02*
D03*
D19*
X290500Y194000D02*
D03*
X290354Y200444D02*
D03*
X279000Y182000D02*
D03*
X285000Y188000D02*
D03*
X300500Y197500D02*
D03*
X290000Y206000D02*
D03*
X310000Y184000D02*
D03*
X299000Y192500D02*
D03*
X295000Y193000D02*
D03*
X381500Y245500D02*
D03*
X428805Y246126D02*
D03*
X409963Y239963D02*
D03*
X405033Y241480D02*
D03*
X258000Y137500D02*
D03*
X416000Y141000D02*
D03*
X241000Y142620D02*
D03*
X433500Y246000D02*
D03*
Y172500D02*
D03*
X411000Y189885D02*
D03*
X409500Y142000D02*
D03*
X353500Y209000D02*
D03*
X411433Y246933D02*
D03*
X316170Y206830D02*
D03*
X316500Y200000D02*
D03*
X317000Y193000D02*
D03*
X318527Y195545D02*
D03*
X342500Y177000D02*
D03*
X348500Y167500D02*
D03*
X357500Y167000D02*
D03*
X349500Y151500D02*
D03*
X359500Y161500D02*
D03*
X382500Y185500D02*
D03*
X371500Y173000D02*
D03*
X368500Y158500D02*
D03*
X376500Y154500D02*
D03*
X382500Y161000D02*
D03*
X371500Y219500D02*
D03*
X324500Y173000D02*
D03*
X383000Y219500D02*
D03*
X319814Y190814D02*
D03*
X368500Y208500D02*
D03*
X372500Y211500D02*
D03*
X334500Y180500D02*
D03*
X353500Y168500D02*
D03*
X330000Y179000D02*
D03*
X340500Y194000D02*
D03*
M02*
