M48
;Layer_Color=9474304
;FILE_FORMAT=2:4
INCH,TZ
;TYPE=PLATED
T1F00S00C0.0394
T2F00S00C0.0512
;TYPE=NON_PLATED
T3F00S00C0.1299
%
T01
X2858Y6621
X2279Y7237
X1701Y7828
X1122Y8418
X490Y9008
X3490Y6046
X4068Y5466
X4637Y4875
X11749
X12422Y4502
X13053Y4953
X13741Y4524
X14433Y4860
X15162Y4457
X15845Y4915
X16501Y4512
X17170Y4891
X17852Y4524
X18537Y4903
X19223Y4524
X19907Y4964
X20593Y4524
X21277Y4942
X28608Y4966
X29239Y5508
X29839Y6108
X30439Y6708
X31108Y7345
X31740Y7924
X32319Y8608
T02
X5924Y4325
Y5506
Y6688
Y7869
Y9050
Y10231
Y11412
Y12593
Y13774
X6908Y13184
Y12003
X8089
Y13184
X9073Y13774
Y12593
Y11412
Y10231
Y9050
Y7869
Y6688
Y5506
Y4325
X8089Y4916
X6908
Y6097
Y7278
X8089
Y6097
Y8459
X6908
Y9640
Y10821
X8089
Y9640
X23958Y9140
Y7959
Y6778
Y5597
Y4416
X24942Y5006
X26124
Y6188
X24942
Y7369
X26124
Y8550
Y9731
X24942
Y8550
Y10912
X26124
Y12093
Y13274
X24942
Y12093
X23958Y11503
Y10321
Y12684
Y13865
X27108
Y12684
Y11503
Y10321
Y9140
Y7959
Y6778
Y5597
Y4416
T03
X3365Y1471
X29667Y1562
Y16719
X3365Y16629
M30
